<?xml version="1.0" standalone="no"?>
<!DOCTYPE svg PUBLIC "-//W3C//DTD SVG 20010904//EN"
 "http://www.w3.org/TR/2001/REC-SVG-20010904/DTD/svg10.dtd">
<svg version="1.0" xmlns="http://www.w3.org/2000/svg"
 width="225.000000pt" height="225.000000pt" viewBox="0 0 225.000000 225.000000"
 preserveAspectRatio="xMidYMid meet">
<metadata>
Created by potrace 1.14, written by Peter Selinger 2001-2017
</metadata>
<g transform="translate(0.000000,225.000000) scale(0.100000,-0.100000)"
fill="#000000" stroke="none">
<path d="M975 1744 c-38 -8 -111 -34 -161 -59 -221 -108 -375 -332 -392 -569
-4 -68 -3 -81 13 -92 32 -24 52 -1 60 68 10 92 32 174 65 237 45 87 44 86 74
66 34 -23 62 -15 121 34 169 139 420 170 620 76 29 -14 83 -48 120 -75 72 -53
90 -58 121 -35 10 8 23 15 27 15 4 0 26 -38 48 -84 37 -77 68 -196 69 -268 0
-32 27 -51 53 -37 41 23 8 223 -60 359 -28 56 -60 98 -128 166 -77 78 -104 98
-185 137 -151 74 -305 94 -465 61z"/>
<path d="M614 1100 c-12 -4 -31 -21 -43 -36 -20 -26 -21 -37 -21 -261 0 -254
4 -278 55 -301 60 -27 116 -6 141 54 20 48 20 440 0 489 -22 52 -80 76 -132
55z"/>
<path d="M1543 1090 c-48 -29 -55 -69 -51 -315 3 -199 4 -216 24 -242 27 -36
81 -51 124 -33 56 23 60 44 60 306 l0 236 -34 34 c-40 40 -75 44 -123 14z"/>
<path d="M419 953 c-18 -21 -20 -296 -2 -314 18 -18 65 -14 80 7 20 28 18 287
-3 308 -20 21 -58 20 -75 -1z"/>
<path d="M1760 960 c-21 -13 -28 -286 -7 -314 18 -24 66 -24 84 0 20 28 18
272 -3 302 -16 23 -48 28 -74 12z"/>
</g>
</svg>
